<mxfile host="app.diagrams.net" modified="2023-06-22T17:44:34.920Z" agent="Mozilla/5.0 (X11; Linux x86_64) AppleWebKit/537.36 (KHTML, like Gecko) Chrome/114.0.0.0 Safari/537.36" etag="EO7zY0rhhAqrOfdZT1c2" version="21.5.0" type="device">
  <diagram name="Page-1" id="pzl0zhtocnfp3xD37OHh">
    <mxGraphModel dx="2280" dy="777" grid="1" gridSize="10" guides="1" tooltips="1" connect="1" arrows="1" fold="1" page="1" pageScale="1" pageWidth="850" pageHeight="1100" math="0" shadow="0">
      <root>
        <mxCell id="0" />
        <mxCell id="1" parent="0" />
        <mxCell id="5Fki5BdM-b8Io1FHYnxv-1" value="" style="whiteSpace=wrap;html=1;aspect=fixed;" vertex="1" parent="1">
          <mxGeometry x="180" y="40" width="580" height="580" as="geometry" />
        </mxCell>
        <mxCell id="5Fki5BdM-b8Io1FHYnxv-2" value="&lt;font style=&quot;font-size: 37px;&quot;&gt;Docker&lt;/font&gt;" style="text;html=1;strokeColor=none;fillColor=none;align=center;verticalAlign=middle;whiteSpace=wrap;rounded=0;" vertex="1" parent="1">
          <mxGeometry x="345" y="70" width="250" height="100" as="geometry" />
        </mxCell>
        <mxCell id="5Fki5BdM-b8Io1FHYnxv-15" style="edgeStyle=orthogonalEdgeStyle;rounded=0;orthogonalLoop=1;jettySize=auto;html=1;startArrow=classic;startFill=1;" edge="1" parent="1" source="5Fki5BdM-b8Io1FHYnxv-5" target="5Fki5BdM-b8Io1FHYnxv-7">
          <mxGeometry relative="1" as="geometry" />
        </mxCell>
        <mxCell id="5Fki5BdM-b8Io1FHYnxv-5" value="&lt;font color=&quot;#050505&quot;&gt;&lt;span style=&quot;font-size: 18px;&quot;&gt;FastAPI&lt;br&gt;Backend&lt;br&gt;&lt;/span&gt;&lt;/font&gt;" style="whiteSpace=wrap;html=1;aspect=fixed;fillColor=#b0e3e6;strokeColor=#0e8088;" vertex="1" parent="1">
          <mxGeometry x="250" y="220" width="180" height="180" as="geometry" />
        </mxCell>
        <mxCell id="5Fki5BdM-b8Io1FHYnxv-14" style="edgeStyle=orthogonalEdgeStyle;rounded=0;orthogonalLoop=1;jettySize=auto;html=1;startArrow=classic;startFill=1;" edge="1" parent="1" source="5Fki5BdM-b8Io1FHYnxv-6">
          <mxGeometry relative="1" as="geometry">
            <mxPoint x="340" y="400" as="targetPoint" />
          </mxGeometry>
        </mxCell>
        <mxCell id="5Fki5BdM-b8Io1FHYnxv-6" value="&lt;font style=&quot;font-size: 15px;&quot; color=&quot;#050505&quot;&gt;DB and VectorDB&lt;/font&gt;" style="whiteSpace=wrap;html=1;aspect=fixed;fillColor=#b0e3e6;strokeColor=#0e8088;" vertex="1" parent="1">
          <mxGeometry x="570" y="420" width="150" height="150" as="geometry" />
        </mxCell>
        <mxCell id="5Fki5BdM-b8Io1FHYnxv-7" value="&lt;font color=&quot;#050505&quot; style=&quot;font-size: 17px;&quot;&gt;NextJS frontend&lt;/font&gt;" style="whiteSpace=wrap;html=1;aspect=fixed;fillColor=#b1ddf0;strokeColor=#10739e;" vertex="1" parent="1">
          <mxGeometry x="570" y="235" width="150" height="150" as="geometry" />
        </mxCell>
        <mxCell id="5Fki5BdM-b8Io1FHYnxv-11" style="edgeStyle=orthogonalEdgeStyle;rounded=0;orthogonalLoop=1;jettySize=auto;html=1;" edge="1" parent="1" source="5Fki5BdM-b8Io1FHYnxv-8" target="5Fki5BdM-b8Io1FHYnxv-5">
          <mxGeometry relative="1" as="geometry" />
        </mxCell>
        <mxCell id="5Fki5BdM-b8Io1FHYnxv-8" value="&lt;font style=&quot;font-size: 17px;&quot; color=&quot;#2b2b2b&quot;&gt;OpenAI API&lt;/font&gt;" style="whiteSpace=wrap;html=1;aspect=fixed;fillColor=#dae8fc;strokeColor=#6c8ebf;" vertex="1" parent="1">
          <mxGeometry x="-70" y="80" width="150" height="150" as="geometry" />
        </mxCell>
        <mxCell id="5Fki5BdM-b8Io1FHYnxv-12" style="edgeStyle=orthogonalEdgeStyle;rounded=0;orthogonalLoop=1;jettySize=auto;html=1;" edge="1" parent="1" source="5Fki5BdM-b8Io1FHYnxv-9" target="5Fki5BdM-b8Io1FHYnxv-5">
          <mxGeometry relative="1" as="geometry" />
        </mxCell>
        <mxCell id="5Fki5BdM-b8Io1FHYnxv-9" value="&lt;font style=&quot;font-size: 18px;&quot; color=&quot;#242424&quot;&gt;Facebook API&lt;/font&gt;" style="whiteSpace=wrap;html=1;aspect=fixed;fillColor=#dae8fc;strokeColor=#6c8ebf;" vertex="1" parent="1">
          <mxGeometry x="-70" y="280" width="150" height="150" as="geometry" />
        </mxCell>
        <mxCell id="5Fki5BdM-b8Io1FHYnxv-13" style="edgeStyle=orthogonalEdgeStyle;rounded=0;orthogonalLoop=1;jettySize=auto;html=1;" edge="1" parent="1" source="5Fki5BdM-b8Io1FHYnxv-10" target="5Fki5BdM-b8Io1FHYnxv-5">
          <mxGeometry relative="1" as="geometry" />
        </mxCell>
        <mxCell id="5Fki5BdM-b8Io1FHYnxv-10" value="&lt;font color=&quot;#050505&quot;&gt;&lt;span style=&quot;font-size: 16px;&quot;&gt;Custom Image manipulation library&lt;br&gt;or&lt;br&gt;Canvas API&lt;br&gt;&lt;/span&gt;&lt;/font&gt;" style="whiteSpace=wrap;html=1;aspect=fixed;fillColor=#dae8fc;strokeColor=#6c8ebf;" vertex="1" parent="1">
          <mxGeometry x="-70" y="470" width="150" height="150" as="geometry" />
        </mxCell>
      </root>
    </mxGraphModel>
  </diagram>
</mxfile>
